<?xml version="1.0" encoding="UTF-8"?>
<svg version="1.1" xmlns="http://www.w3.org/2000/svg" width="512" height="512">
<path d="M0 0 C1.29109177 -0.00852997 2.58218353 -0.01705994 3.91239929 -0.02584839 C5.33610547 -0.02514942 6.75981155 -0.02422638 8.18351746 -0.02310181 C9.68850029 -0.02908867 11.19348006 -0.03589459 12.69845581 -0.04345703 C16.78122776 -0.06110915 20.86391585 -0.0658121 24.94672227 -0.0670886 C27.49950101 -0.06851132 30.05225851 -0.07278322 32.60503197 -0.07808304 C41.51662421 -0.09658139 50.42815665 -0.10475398 59.33976746 -0.10317993 C67.63714116 -0.10197889 75.93425458 -0.12307423 84.23156244 -0.15466726 C91.36295186 -0.18084996 98.49425639 -0.19154638 105.6256935 -0.19026911 C109.88153498 -0.18976002 114.13714515 -0.19541364 118.39293861 -0.21662521 C122.39774005 -0.23604111 126.40209035 -0.23610947 130.40690804 -0.22159195 C131.87259839 -0.21950682 133.33831722 -0.22418716 134.80395889 -0.23631287 C150.78650328 -0.35992466 150.78650328 -0.35992466 157.11358356 5.71474648 C161.4413493 10.62840515 162.85387661 14.16169393 162.88027954 20.65493774 C162.89025467 21.96989731 162.9002298 23.28485687 162.9105072 24.6396637 C162.91140298 26.09533679 162.91206656 27.55101005 162.91252136 29.00668335 C162.9201437 30.54107568 162.92857132 32.07546418 162.93774414 33.60984802 C162.95969151 37.77737814 162.9684886 41.94483488 162.97357059 46.11241627 C162.97721453 48.71762015 162.98345485 51.32280484 162.99057198 53.9280014 C163.01506938 63.02113183 163.02811855 72.11420521 163.03166199 81.20736694 C163.03529528 89.67574819 163.065175 98.14376656 163.10706657 106.61203694 C163.14179354 113.88777888 163.15721086 121.16340073 163.15790802 128.43922496 C163.15870016 132.78233048 163.16740907 137.12506654 163.19590569 141.46808624 C163.22212711 145.55583741 163.22426925 149.64291393 163.20825005 153.73071098 C163.20643864 155.22704734 163.21309853 156.72342284 163.22906876 158.21967506 C163.30981883 166.27965785 163.29933523 173.01760795 157.60612488 179.26742554 C152.06910863 184.52759097 146.85271337 185.74060241 139.39128113 185.57992554 C133.67863493 184.93895542 129.4924885 182.57549898 125.73112488 178.26742554 C122.99898078 174.41028093 121.3635775 171.75614053 121.32765198 166.99002075 C121.31090675 165.71964966 121.31090675 165.71964966 121.29382324 164.4236145 C121.29166306 163.50292175 121.28950287 162.582229 121.28727722 161.63363647 C121.2772316 160.65769531 121.26718597 159.68175415 121.25683594 158.67623901 C121.22595299 155.45143216 121.20895445 152.22670853 121.19206238 149.00180054 C121.17335486 146.76548545 121.15378176 144.52917745 121.13337708 142.2928772 C121.082006 136.40748266 121.04240681 130.52206522 121.00523376 124.63656616 C120.96522538 118.63064893 120.91411859 112.62482736 120.86393738 106.61898804 C120.76711913 94.83520102 120.68273314 83.05136005 120.60612488 71.26742554 C117.93741456 73.76525114 115.27154992 76.26609488 112.60612488 78.76742554 C111.49044128 79.81156616 111.49044128 79.81156616 110.35221863 80.87680054 C105.95654147 85.00491474 101.64068473 89.19344492 97.41203308 93.49276733 C95.60113573 95.27232836 93.72639062 96.9343495 91.79362488 98.57992554 C88.40416882 101.48993005 85.24161034 104.58902496 82.10612488 107.76742554 C78.4376599 111.48589515 74.67463268 115.00410741 70.69987488 118.39242554 C68.0662696 120.75087802 65.58785974 123.25187957 63.10612488 125.76742554 C59.43764906 129.48588059 55.67463259 133.00410749 51.69987488 136.39242554 C49.0662696 138.75087802 46.58785974 141.25187957 44.10612488 143.76742554 C40.43764906 147.48588059 36.67463259 151.00410749 32.69987488 154.39242554 C30.0662696 156.75087802 27.58785974 159.25187957 25.10612488 161.76742554 C21.43764906 165.48588059 17.67463259 169.00410749 13.69987488 172.39242554 C11.0662696 174.75087802 8.58785974 177.25187957 6.10612488 179.76742554 C2.43764906 183.48588059 -1.32536741 187.00410749 -5.30012512 190.39242554 C-7.9337304 192.75087802 -10.41214026 195.25187957 -12.89387512 197.76742554 C-16.56274414 201.48627915 -20.31737007 205.01299065 -24.30793762 208.38461304 C-26.43278533 210.30254673 -28.39112161 212.34121457 -30.35871887 214.41854858 C-36.95915192 221.31723527 -43.14524786 226.36752426 -53.01887512 226.82992554 C-58.74464295 226.83873441 -63.90198102 224.61787596 -68.0584259 220.69735718 C-69.66917169 218.85683347 -71.16565025 216.9658985 -72.64387512 215.01742554 C-73.19615784 214.31432251 -73.74844055 213.61121948 -74.31745911 212.8868103 C-78.60874059 207.39198856 -82.78460615 201.80525959 -86.93928528 196.20663452 C-90.85453948 190.93877933 -94.91859292 185.80623258 -99.03694153 180.69638062 C-103.43938714 175.22966285 -107.73203988 169.68711489 -111.99006653 164.10678101 C-113.62674217 161.96230896 -115.26610326 159.81990245 -116.90559387 157.67758179 C-120.06999015 153.5421122 -123.23252714 149.40522573 -126.39387512 145.26742554 C-135.56669947 149.677275 -143.20452625 157.80731603 -150.84431458 164.46786499 C-154.47938914 167.63074415 -158.14818603 170.73520103 -161.89387512 173.76742554 C-168.22261257 178.89604685 -174.34093346 184.26017225 -180.48420715 189.60775757 C-187.52659903 195.72821014 -194.58390314 201.8277289 -201.83137512 207.70492554 C-208.17664393 212.85929345 -214.3189696 218.24105319 -220.48420715 223.60775757 C-227.52659903 229.72821014 -234.58390314 235.8277289 -241.83137512 241.70492554 C-248.17664393 246.85929345 -254.3189696 252.24105319 -260.48420715 257.60775757 C-267.52659903 263.72821014 -274.58390314 269.8277289 -281.83137512 275.70492554 C-286.21913881 279.26797006 -290.50504967 282.9332001 -294.76887512 286.64242554 C-295.40309387 287.19269409 -296.03731262 287.74296265 -296.69075012 288.30990601 C-300.45413216 291.57598179 -300.45413216 291.57598179 -304.20295715 294.85873413 C-320.41929038 309.1195551 -320.41929038 309.1195551 -331.71418762 308.65023804 C-337.36256868 307.84332646 -341.52468206 305.55583271 -345.26887512 301.26742554 C-350.10041936 294.44642191 -350.36824219 288.56792993 -349.39387512 280.26742554 C-346.32396689 271.26893307 -336.52552593 265.03827375 -329.39387512 259.26742554 C-327.99395325 258.12467163 -327.99395325 258.12467163 -326.56575012 256.95883179 C-324.80948143 255.5259479 -323.05163788 254.09499235 -321.29231262 252.66586304 C-315.87791095 248.18548214 -310.60404224 243.54106203 -305.30354309 238.92709351 C-298.26115121 232.80664094 -291.20384711 226.70712217 -283.95637512 220.82992554 C-277.61110631 215.67555762 -271.46878064 210.29379788 -265.30354309 204.92709351 C-258.26115121 198.80664094 -251.20384711 192.70712217 -243.95637512 186.82992554 C-237.61110631 181.67555762 -231.46878064 176.29379788 -225.30354309 170.92709351 C-218.26115121 164.80664094 -211.20384711 158.70712217 -203.95637512 152.82992554 C-197.61110631 147.67555762 -191.46878064 142.29379788 -185.30354309 136.92709351 C-177.39935375 130.0576638 -169.44192576 123.27330234 -161.30403137 116.68148804 C-158.43955112 114.30531516 -155.63822272 111.87028747 -152.84211731 109.41464233 C-132.61170181 91.6610584 -132.61170181 91.6610584 -121.87434387 91.95883179 C-113.35771169 93.0183813 -108.48728922 97.80716915 -103.39387512 104.26742554 C-101.85124624 106.27804295 -100.3298249 108.30192982 -98.82258606 110.33920288 C-96.7629097 113.11899166 -94.63835781 115.84544541 -92.51887512 118.57992554 C-91.70315724 119.64455976 -90.88807205 120.70967899 -90.07356262 121.77523804 C-86.95175067 125.85179036 -83.79787291 129.9032548 -80.64387512 133.95492554 C-79.76010193 135.09079102 -79.76010193 135.09079102 -78.85847473 136.24960327 C-75.80915593 140.16779846 -72.75713941 144.08387008 -69.70246887 147.99789429 C-63.18109886 156.35945287 -56.70824342 164.74803974 -50.39387512 173.26742554 C-46.38992469 169.94499859 -42.61077767 166.53508368 -38.95637512 162.82992554 C-36.22747763 160.06421324 -33.47498128 157.4132768 -30.51887512 154.89242554 C-27.14829769 152.00527754 -24.00883648 148.92495556 -20.89387512 145.76742554 C-17.22540653 142.04896078 -13.4623829 138.53074364 -9.48762512 135.14242554 C-6.85401985 132.78397305 -4.37560999 130.2829715 -1.89387512 127.76742554 C1.77460069 124.04897049 5.53761717 120.53074359 9.51237488 117.14242554 C12.14598015 114.78397305 14.62439001 112.2829715 17.10612488 109.76742554 C20.77460069 106.04897049 24.53761717 102.53074359 28.51237488 99.14242554 C31.14598015 96.78397305 33.62439001 94.2829715 36.10612488 91.76742554 C39.77460069 88.04897049 43.53761717 84.53074359 47.51237488 81.14242554 C50.14598015 78.78397305 52.62439001 76.2829715 55.10612488 73.76742554 C58.77460069 70.04897049 62.53761717 66.53074359 66.51237488 63.14242554 C70.06630371 59.95980271 73.36822281 56.52310838 76.69987488 53.11117554 C78.97424677 50.82983145 81.35766149 48.70406811 83.7877655 46.58969116 C84.50404114 45.96566406 85.22031677 45.34163696 85.95829773 44.69869995 C86.50208069 44.22637939 87.04586365 43.75405884 87.60612488 43.26742554 C86.45655807 43.2615593 85.30699127 43.25569305 84.12258911 43.24964905 C73.27883393 43.19238839 62.43527864 43.11960906 51.59172726 43.03171062 C46.01719552 42.9870199 40.44273665 42.94776073 34.86808777 42.92098999 C29.48630442 42.89494434 24.10480167 42.85453255 18.72319221 42.80423927 C16.6719824 42.78757918 14.62072406 42.77605957 12.5694561 42.76981163 C9.69197686 42.76016138 6.8152141 42.73209053 3.93791199 42.69979858 C3.09346024 42.70123367 2.24900848 42.70266876 1.37896729 42.70414734 C-5.80644918 42.59041501 -11.52418507 40.76452819 -17.03840637 35.84164429 C-20.58335211 31.72460356 -22.5860433 26.62355889 -22.83137512 21.20492554 C-21.93972662 13.18008906 -19.73738903 8.94921177 -13.52668762 3.71273804 C-9.09086638 0.70677859 -5.31729866 0.01590321 0 0 Z " fill="#000000" transform="translate(349.3938751220703,101.73257446289063)"/>
</svg>
